<mxfile host="app.diagrams.net" modified="2024-08-01T06:05:26.455Z" agent="Mozilla/5.0 (Windows NT 10.0; Win64; x64) AppleWebKit/537.36 (KHTML, like Gecko) Chrome/127.0.0.0 Safari/537.36 Edg/127.0.0.0" version="24.4.15" etag="Yhe3rVVAkDru7cAoHTNl" type="github">
  <diagram name="Page-1" id="2yp8IYSSfUjoqlpuzB5U">
    <mxGraphModel>
      <root>
        <mxCell id="0" />
        <mxCell id="1" parent="0" />
      </root>
    </mxGraphModel>
  </diagram>
</mxfile>
